# xmcd
#
# Track frame offsets:
#	182
#	21195
#	34130
#	48055
#	63095
#	74505
#	89835
#	109667
#	130700
#	147877
#	166130
#	183697
#	198090
#	211292
#	226977
#	239652
#
# Disc length: 3592 seconds
#
# Revision: 0
# Processed by: cddbd v1.5.2PL0 Copyright (c) Steve Scherf et al.
# Submitted via: EasyCDDAExtractor 10.0.1.1
#
DISCID=e00e0610
DTITLE=Eric Clapton - Royal Albert Hall
DYEAR=1994
DGENRE=Blues
TTITLE0=Terraplane Blues
TTITLE1=Come On Into My Kitchen
TTITLE2=Malted Milk
TTITLE3=How Long
TTITLE4=Kidman BLues
TTITLE5=County Jail
TTITLE6=Forty Four
TTITLE7=Standing Around Crying
TTITLE8=Going Away
TTITLE9=BLues All Night Long
TTITLE10=Hoochie Koochie Man
TTITLE11=It Hurts Me To
TTITLE12=Blues At Sunrise
TTITLE13=Some Day After a While
TTITLE14=Tore Down
TTITLE15=White Room
EXTD=
EXTT0=
EXTT1=
EXTT2=
EXTT3=
EXTT4=
EXTT5=
EXTT6=
EXTT7=
EXTT8=
EXTT9=
EXTT10=
EXTT11=
EXTT12=
EXTT13=
EXTT14=
EXTT15=
PLAYORDER=
